# 3ds Max Wavefront OBJ Exporter v0.97b - (c)2007 guruware
# File Created: 11.03.2015 13:13:53

mtllib Kitchen Wall.mtl

#
# object Box001
#

v  -448.3091 0.0000 -12.1481
v  -448.3091 0.0000 -20.4444
v  436.4572 0.0000 -20.4444
v  436.4572 0.0000 -12.1481
v  -448.3091 317.0163 -12.1481
v  436.4572 317.0163 -12.1481
v  436.4572 317.0163 -20.4444
v  -448.3091 317.0163 -20.4444
# 8 vertices

vn 0.0000 -1.0000 -0.0000
vn 0.0000 1.0000 -0.0000
vn 0.0000 0.0000 1.0000
vn 1.0000 0.0000 -0.0000
vn 0.0000 0.0000 -1.0000
vn -1.0000 0.0000 -0.0000
# 6 vertex normals

vt 10.0000 0.0001 0.0000
vt 10.0000 10.0000 0.0000
vt 0.0000 9.9999 0.0000
vt 0.0000 0.0000 0.0000
vt -0.0000 0.0001 0.0000
vt 10.0000 0.0000 0.0000
vt 10.0000 9.9999 0.0000
vt -0.0000 10.0000 0.0000
vt -0.0000 0.0000 0.0000
vt 9.9999 0.0000 0.0000
vt 9.9999 10.0000 0.0000
vt 0.0000 10.0000 0.0000
vt 0.0000 0.0000 -0.0000
vt 9.9999 0.0000 -0.0000
vt 9.9999 10.0000 -0.0000
vt 0.0000 10.0000 -0.0000
# 16 texture coords

g Box001
usemtl 02___Default
s 2
f 1/1/1 2/2/1 3/3/1 4/4/1 
s 4
f 5/5/2 6/6/2 7/7/2 8/8/2 
s 8
f 1/9/3 4/6/3 6/2/3 5/8/3 
s 16
f 4/4/4 3/10/4 7/11/4 6/12/4 
s 32
f 3/4/5 2/6/5 8/2/5 7/12/5 
s 64
f 2/13/6 1/14/6 5/15/6 8/16/6 
# 6 polygons

